<svg width="176" height="176" viewBox="0 0 176 176" fill="none" xmlns="http://www.w3.org/2000/svg">
<path d="M78.625 88C78.625 90.4864 79.6127 92.871 81.3709 94.6291C83.129 96.3873 85.5136 97.375 88 97.375C90.4864 97.375 92.871 96.3873 94.6291 94.6291C96.3873 92.871 97.375 90.4864 97.375 88C97.375 85.5136 96.3873 83.129 94.6291 81.3709C92.871 79.6127 90.4864 78.625 88 78.625C85.5136 78.625 83.129 79.6127 81.3709 81.3709C79.6127 83.129 78.625 85.5136 78.625 88ZM117.688 88C117.688 90.4864 118.675 92.871 120.433 94.6291C122.192 96.3873 124.576 97.375 127.063 97.375C129.549 97.375 131.933 96.3873 133.692 94.6291C135.45 92.871 136.438 90.4864 136.438 88C136.438 85.5136 135.45 83.129 133.692 81.3709C131.933 79.6127 129.549 78.625 127.063 78.625C124.576 78.625 122.192 79.6127 120.433 81.3709C118.675 83.129 117.688 85.5136 117.688 88ZM39.5625 88C39.5625 90.4864 40.5502 92.871 42.3084 94.6291C44.0665 96.3873 46.4511 97.375 48.9375 97.375C51.4239 97.375 53.8085 96.3873 55.5666 94.6291C57.3248 92.871 58.3125 90.4864 58.3125 88C58.3125 85.5136 57.3248 83.129 55.5666 81.3709C53.8085 79.6127 51.4239 78.625 48.9375 78.625C46.4511 78.625 44.0665 79.6127 42.3084 81.3709C40.5502 83.129 39.5625 85.5136 39.5625 88ZM168.703 54.0937C164.289 43.6055 157.961 34.1914 149.895 26.1055C141.884 18.0665 132.376 11.6764 121.906 7.29688C111.164 2.78516 99.7578 0.5 88 0.5H87.6094C75.7734 0.558594 64.3086 2.90234 53.5274 7.51172C43.1477 11.9362 33.728 18.3376 25.793 26.3594C17.8047 34.4258 11.5352 43.8008 7.19923 54.25C2.70704 65.0703 0.441416 76.5742 0.500009 88.4102C0.566284 101.974 3.77524 115.338 9.87501 127.453V157.141C9.87501 159.523 10.8216 161.809 12.5065 163.494C14.1914 165.178 16.4766 166.125 18.8594 166.125H48.5664C60.6815 172.225 74.0455 175.434 87.6094 175.5H88.0195C99.7188 175.5 111.066 173.234 121.75 168.801C132.166 164.474 141.64 158.158 149.641 150.207C157.707 142.219 164.055 132.883 168.488 122.473C173.098 111.691 175.441 100.227 175.5 88.3906C175.559 76.4961 173.254 64.9531 168.703 54.0937ZM139.191 139.641C125.5 153.195 107.336 160.656 88 160.656H87.668C75.8906 160.598 64.1914 157.668 53.8594 152.16L52.2188 151.281H24.7188V123.781L23.8399 122.141C18.332 111.809 15.4024 100.109 15.3438 88.332C15.2656 68.8594 22.707 50.5781 36.3594 36.8086C49.9922 23.0391 68.2149 15.4219 87.6875 15.3438H88.0195C97.7852 15.3438 107.258 17.2383 116.184 20.9883C124.895 24.6406 132.707 29.8945 139.426 36.6133C146.125 43.3125 151.398 51.1445 155.051 59.8555C158.84 68.8789 160.734 78.4492 160.695 88.332C160.578 107.785 152.941 126.008 139.191 139.641Z" fill="#3949AB"/>
</svg>
